<?xml version="1.0" encoding="utf-8"?>
<!-- Generator: Adobe Illustrator 24.1.1, SVG Export Plug-In . SVG Version: 6.00 Build 0)  -->
<svg version="1.1" id="Слой_1" xmlns="http://www.w3.org/2000/svg" xmlns:xlink="http://www.w3.org/1999/xlink" x="0px" y="0px"
	 viewBox="0 0 104.88 141.73" style="enable-background:new 0 0 104.88 141.73;" xml:space="preserve">
<style type="text/css">
	.st0{fill:#EB875F;stroke:#671F04;stroke-width:4;stroke-miterlimit:10;}
	.st1{fill:#FFFFFF;stroke:#671F04;stroke-width:3;stroke-miterlimit:10;}
	.st2{fill:#FFFFFF;stroke:#000000;stroke-width:3;stroke-miterlimit:10;}
</style>
<path class="st0" d="M98.67,56.78c0.49,16.5-11.85,35.97-36.54,74.9c-1.45,2.29-4.62,7.14-8.87,7.18c-4.16,0.03-7.33-4.56-8.75-6.67
	C18.44,93.38,5.4,73.98,6.72,55.41c0.56-7.95,1.6-22.52,12.99-34.34C32.81,7.48,50.28,7.19,53.26,7.19c3.1,0,21.53,0.3,34.32,14.66
	C97.98,33.53,98.4,47.49,98.67,56.78z"/>
<g>
	<path class="st1" d="M39.93,65.52h-1c-5.43,0-9.83-4.4-9.83-9.83v-9.16c0-0.93,0.75-1.68,1.68-1.68h17.31
		c0.93,0,1.68,0.75,1.68,1.68v9.16C49.76,61.12,45.36,65.52,39.93,65.52z"/>
	<ellipse class="st1" cx="39.43" cy="80.97" rx="10.33" ry="2.47"/>
	<line class="st1" x1="39.43" y1="65.44" x2="39.43" y2="81.29"/>
</g>
<g>
	<path class="st1" d="M76.22,53.24v28.74c0,0.86-0.69,1.57-1.56,1.57c-2.17,0.51-4.99,0.98-8.31,0.99
		c-3.45,0.01-6.37-0.46-8.59-0.99c-0.11,0-0.65-0.01-1.1-0.46c-0.27-0.28-0.45-0.67-0.45-1.1V53.24c0-4.47,2.92-8.25,6.96-9.54
		V30.15h6.1V43.7c1.53,0.49,2.91,1.35,4.03,2.46C75.1,47.98,76.22,50.48,76.22,53.24z"/>
	<path class="st1" d="M70.07,31.41h-7.58c-0.97,0-1.76-0.79-1.76-1.76v-3.13c0-0.97,0.79-1.76,1.76-1.76h7.58
		c0.97,0,1.76,0.79,1.76,1.76v3.13C71.83,30.62,71.04,31.41,70.07,31.41z"/>
</g>
<path class="st2" d="M31.83,1.23"/>
</svg>
