<?xml version="1.0" encoding="utf-8"?>
<!-- Generator: Adobe Illustrator 24.1.1, SVG Export Plug-In . SVG Version: 6.00 Build 0)  -->
<svg version="1.1" id="Слой_1" xmlns="http://www.w3.org/2000/svg" xmlns:xlink="http://www.w3.org/1999/xlink" x="0px" y="0px"
	 viewBox="0 0 104.88 141.73" style="enable-background:new 0 0 104.88 141.73;" xml:space="preserve">
<style type="text/css">
	.st0{fill:#688FCA;stroke:#082347;stroke-width:4;stroke-miterlimit:10;}
	.st1{fill:#FFFFFF;stroke:#082347;stroke-width:3;stroke-miterlimit:10;}
	.st2{fill:#688FCA;stroke:#082347;stroke-width:3;stroke-miterlimit:10;}
</style>
<path class="st0" d="M98.44,54.8c0.49,16.5-11.85,35.97-36.54,74.9c-1.45,2.29-4.62,7.14-8.87,7.18c-4.16,0.03-7.33-4.56-8.75-6.67
	C18.2,91.4,5.17,72,6.49,53.43c0.56-7.95,1.6-22.52,12.99-34.34C32.57,5.49,50.05,5.21,53.03,5.21c3.1,0,21.53,0.3,34.32,14.66
	C97.75,31.55,98.17,45.51,98.44,54.8z"/>
<g>
	<path class="st1" d="M77.42,27.69c6.26,8.15,8.11,19.23,4.95,28.77c-3.88,11.73-15.02,20.22-18.34,18.13
		c-4.61-2.92,9.24-24.21,0.91-33.99c-4.47-5.25-17.08-8.77-26.35-5.48c-1.9,0.67-4.46,1.92-5.58,0.8
		c-1.63-1.63,0.62-7.43,3.48-11.16c6.45-8.41,17.79-8.57,18.93-8.57C68.36,16.21,76.38,26.35,77.42,27.69z"/>
	<path class="st1" d="M83.86,39.85l-10.51,8.1c-2.82,2.18-6.6,1.86-8.44-0.7l-4.37-6.1c-1.84-2.56-1.04-6.41,1.79-8.58l10.51-8.1
		c2.82-2.18,6.6-1.86,8.44,0.7l4.37,6.1C87.48,33.83,86.68,37.67,83.86,39.85z"/>
	<path class="st1" d="M68.71,24.62l-5.66,10.75c-1.48,2.8-4.86,3.83-7.56,2.3L52.9,36.2c-2.7-1.53-3.69-5.05-2.22-7.85l5.66-10.75
		c1.48-2.8,4.86-3.83,7.56-2.3l2.58,1.46C69.19,18.3,70.19,21.82,68.71,24.62z"/>
	<path class="st1" d="M81.03,60.16l-11.8-0.18c-3.08-0.05-5.54-2.68-5.49-5.87l0.07-5.07c0.05-3.19,2.58-5.74,5.66-5.7l11.8,0.18
		c3.08,0.05,5.54,2.68,5.49,5.87l-0.07,5.07C86.64,57.65,84.11,60.2,81.03,60.16z"/>
</g>
<g>
	<circle class="st1" cx="36.98" cy="62.65" r="20.61"/>
	<circle class="st2" cx="36.98" cy="62.65" r="9.28"/>
	<line class="st1" x1="35.82" y1="46.53" x2="37.58" y2="48"/>
	<line class="st1" x1="45.31" y1="50.54" x2="47.17" y2="49.86"/>
	<line class="st1" x1="49.81" y1="60.13" x2="50.99" y2="60.91"/>
	<line class="st1" x1="48.54" y1="71.93" x2="47.17" y2="73.73"/>
	<line class="st1" x1="28.78" y1="75.78" x2="30.15" y2="77.05"/>
	<line class="st1" x1="22.62" y1="61.3" x2="21.64" y2="62.65"/>
	<line class="st1" x1="26.24" y1="51.33" x2="27.7" y2="52.5"/>
	<line class="st1" x1="22.62" y1="56.31" x2="22.13" y2="57.29"/>
	<line class="st1" x1="23.99" y1="68.84" x2="24.57" y2="70.3"/>
	<line class="st1" x1="51.57" y1="66.29" x2="50.41" y2="67.76"/>
	<line class="st1" x1="37.58" y1="76.42" x2="38.37" y2="77.05"/>
	<line class="st1" x1="44.33" y1="75" x2="43.94" y2="76.42"/>
</g>
</svg>
