<?xml version="1.0" encoding="utf-8"?>
<!-- Generator: Adobe Illustrator 24.1.1, SVG Export Plug-In . SVG Version: 6.00 Build 0)  -->
<svg version="1.1" id="Слой_1" xmlns="http://www.w3.org/2000/svg" xmlns:xlink="http://www.w3.org/1999/xlink" x="0px" y="0px"
	 viewBox="0 0 104.88 141.73" style="enable-background:new 0 0 104.88 141.73;" xml:space="preserve">
<style type="text/css">
	.st0{fill:#CD759D;stroke:#4F132D;stroke-width:4;stroke-miterlimit:10;}
	.st1{fill:#FFFFFF;stroke:#4F132D;stroke-width:4;stroke-miterlimit:10;}
	.st2{fill:#FFFFFF;stroke:#4F132D;stroke-width:3;stroke-miterlimit:10;}
</style>
<path class="st0" d="M98.44,54.8c0.49,16.5-11.85,35.97-36.54,74.9c-1.45,2.29-4.62,7.14-8.87,7.18c-4.16,0.03-7.33-4.56-8.75-6.67
	C18.2,91.4,5.17,72,6.49,53.43c0.56-7.95,1.6-22.52,12.99-34.34C32.57,5.49,50.05,5.21,53.03,5.21c3.1,0,21.53,0.3,34.32,14.66
	C97.75,31.55,98.17,45.51,98.44,54.8z"/>
<path class="st1" d="M78.74,42.42"/>
<path class="st2" d="M36.19,16.5"/>
<g>
	<path class="st2" d="M84.99,39.62l-0.36-0.06c-0.51-1.52-2.03-2.7-3.98-2.92L54.06,33.7c-0.49-0.06-0.98-0.04-1.44,0.03l-1.49-0.27
		c-2.43-6.55-1.33-7.52-0.89-7.73c0.55-0.27,1.49-0.03,3.04,0.37c2.06,0.53,2.82,1.16,3.64,0.82c0.83-0.34,0.7-1.23,1.34-1.32
		c0.86-0.13,1.21,1.46,2.6,1.76c1.46,0.31,2.25-1.19,4.01-1c0.97,0.1,0.96,0.58,2.67,1.5c1.2,0.64,3.47,1.86,5.2,1.26
		c1.05-0.36,1.29-1.18,2-1.07c0.66,0.1,0.58,0.83,1.56,1.38c0.73,0.41,1.75,0.57,2.6,0.38c0.99-0.22,1.25-0.77,1.78-0.63
		c0.64,0.17,0.47,1.03,1.11,1.25c0.88,0.3,2.11-1.01,2.53-0.75c0.32,0.21-0.33,1.03,0.08,1.45c0.43,0.44,1.53-0.11,2.08,0.13
		C87.3,31.62,87.15,33.86,84.99,39.62z"/>
	<path class="st2" d="M84.77,41.17c-0.28,4.46-0.76,9.19-1.49,14.16c-0.88,5.96-2.01,11.52-3.28,16.65
		c-0.09,0.55-0.28,0.96-0.43,1.23c-0.48,0.85-1.29,1.52-2.27,1.91c-0.8,0.32-1.71,0.46-2.65,0.35l-26.59-2.95
		c-1.37-0.15-2.54-0.78-3.27-1.67v-0.01c-0.68-0.8-1.01-1.8-0.85-2.85c0.39-5.13,1.01-10.58,1.92-16.3
		c0.81-5.11,1.78-9.95,2.85-14.5c0.12-0.31,1.23-3,3.91-3.45c0.46-0.08,0.95-0.09,1.44-0.03l26.59,2.94
		c1.96,0.21,3.48,1.4,3.98,2.92C84.8,40.07,84.85,40.61,84.77,41.17z"/>
	<path class="st2" d="M79.5,83.03c-0.55,0.26-1.5,0.01-3.04-0.4c-2.05-0.55-2.8-1.18-3.63-0.84c-0.83,0.33-0.71,1.22-1.35,1.31
		c-0.86,0.12-1.19-1.47-2.58-1.78c-1.46-0.31-2.25,1.18-4.02,0.98c-0.97-0.11-0.95-0.6-2.66-1.53c-1.19-0.64-3.45-1.88-5.18-1.29
		c-1.06,0.36-1.31,1.18-2.02,1.06c-0.66-0.11-0.58-0.84-1.54-1.39c-0.72-0.42-1.74-0.58-2.6-0.39c-0.99,0.21-1.27,0.75-1.79,0.62
		c-0.64-0.17-0.46-1.04-1.1-1.27c-0.87-0.31-2.12,1-2.54,0.74c-0.32-0.21,0.35-1.03-0.06-1.45c-0.43-0.44-1.53,0.15-2.07-0.13
		c-0.61-0.31-0.65-1.76,1.4-6.42l0.08,0.01c0.31,0.36,0.97,1.02,2.07,1.41c0.44,0.16,0.86,0.23,1.2,0.27l26.59,2.95
		c0.94,0.1,1.85-0.03,2.65-0.35l1.37,0.18C81.04,81.86,79.93,82.81,79.5,83.03z"/>
</g>
<path class="st2" d="M56.93,50.05c-0.48-2.48-0.41-6.66,1.66-7.83c2.49-1.4,7.53,1.78,9.68,5.87c1.72,3.27,1.84,7.57-0.2,10.96
	c-3.26,5.44-10.9,6.59-11.84,5.18c-0.77-1.16,3.39-3.52,3.13-7.83C59.22,53.76,57.57,53.4,56.93,50.05z"/>
<g>
	<path class="st2" d="M36.36,21.39l-0.26,2.63c-0.05,0.53-0.69,0.9-1.43,0.82l-3.68-0.37c-0.74-0.07-1.3-0.57-1.24-1.09l0.26-2.63
		c0.05-0.53,0.69-0.9,1.44-0.83l3.68,0.37C35.86,20.37,36.41,20.86,36.36,21.39z"/>
	<path class="st2" d="M36.8,67.18c0.1,1.19,0.15,2.18,0.18,2.84l-0.37,3.65c-0.2,2.02-2,3.49-4.02,3.29
		c-1.38-0.41-3.1-0.8-5.11-0.99c-1.84-0.17-3.47-0.13-4.82,0c-0.25-0.03-1.54-0.18-2.48-1.34c-0.6-0.73-0.91-1.68-0.81-2.69
		l0.37-3.65c0.13-0.59,0.35-1.47,0.65-2.54c0.71-2.48,1.29-3.8,1.74-5.12c0.01-0.02,0.01-0.04,0.02-0.05l13.98,1.39
		c0.01,0.07,0.02,0.15,0.03,0.22C36.32,63.41,36.58,64.74,36.8,67.18z"/>
	<path class="st2" d="M39.56,35.56c-0.4,4.3-1.77,5.96-2.73,8.59l-11.81-1.18c-0.42-2.64-1.43-4.25-0.95-8.23
		c0.41-3.33,1.41-4.58,2.14-5.23c1.42-1.26,3.15-1.49,4.06-1.54l0.35-3.53l0.32,0.03l0.04,0.01l3.82,0.38h0.04l0.18,0.02l-0.35,3.53
		c0.88,0.23,3.12,0.93,4.28,2.99C39.67,32.65,39.71,33.96,39.56,35.56z"/>
</g>
<path class="st2" d="M36.22,55.09c-0.1,3.8-0.35,4.62-0.09,6.88l-13.98-1.39c0.74-2.15,0.58-2.76,1.3-6.77
	c1.09-6.04,1.54-5.19,1.7-7.64c0.08-1.28,0.01-2.3-0.13-3.2l11.81,1.18c-0.32,0.88-0.59,1.87-0.76,3.11
	C35.73,49.74,36.36,49.02,36.22,55.09z"/>
</svg>
