<?xml version="1.0" encoding="utf-8"?>
<!-- Generator: Adobe Illustrator 24.1.1, SVG Export Plug-In . SVG Version: 6.00 Build 0)  -->
<svg version="1.1" id="Слой_1" xmlns="http://www.w3.org/2000/svg" xmlns:xlink="http://www.w3.org/1999/xlink" x="0px" y="0px"
	 viewBox="0 0 104.88 141.73" style="enable-background:new 0 0 104.88 141.73;" xml:space="preserve">
<style type="text/css">
	.st0{fill:#71AEC3;stroke:#013944;stroke-width:4;stroke-miterlimit:10;}
	.st1{fill:#FFFFFF;stroke:#013944;stroke-width:3;stroke-miterlimit:10;}
	.st2{fill:#71AEC3;stroke:#013944;stroke-width:3;stroke-miterlimit:10;}
</style>
<path class="st0" d="M98.44,54.8c0.49,16.5-11.85,35.97-36.54,74.9c-1.45,2.29-4.62,7.14-8.87,7.18c-4.16,0.03-7.33-4.56-8.75-6.67
	C18.2,91.4,5.17,72,6.49,53.43c0.56-7.95,1.6-22.52,12.99-34.34C32.57,5.49,50.05,5.21,53.03,5.21c3.1,0,21.53,0.3,34.32,14.66
	C97.75,31.55,98.17,45.51,98.44,54.8z"/>
<ellipse class="st1" cx="35.4" cy="65.46" rx="18.15" ry="3.69"/>
<g>
	<g>
		<path class="st1" d="M50.01,43.56v6.74c0,1.49-0.18,2.92-0.51,4.26c-0.28,1.17-0.68,2.27-1.18,3.28c-1.9,3.88-5.23,6.45-9.03,6.45
			h-8.16c-5.91,0-10.71-6.26-10.71-13.98v-6.74c0-1.33,0.82-2.41,1.85-2.41h25.88C49.18,41.15,50.01,42.23,50.01,43.56z"/>
		<path class="st2" d="M52.76,55.63c-1.28,1.24-2.72,1.79-3.63,2.04c0.29-2.46,0.59-4.91,0.88-7.37v-4.17
			c0.62-0.11,3.33-0.52,4.73,1.01C56.61,49.2,55.02,53.43,52.76,55.63z"/>
	</g>
</g>
<g>
	<ellipse class="st1" cx="72.59" cy="71.04" rx="18.15" ry="3.69"/>
	<path class="st1" d="M80.14,70.61c-2.22,0.26-4.78,0.43-7.62,0.43c-2.78,0-5.29-0.18-7.48-0.43c-1.23-5.35-2.46-10.69-3.69-16.04
		c0.07-0.68,0.3-1.57,1.08-2.23c1.91-1.61,4.87,0.1,10.52,0.06c5.28-0.03,7.99-1.56,9.8-0.06c0.8,0.67,1.02,1.59,1.08,2.23
		C82.6,59.92,81.37,65.26,80.14,70.61z"/>
	<path class="st1" d="M81.69,46.64c1.12,1.9,1.95,3.33,1.43,4.43c-0.62,1.33-2.71,1.33-11.08,1.31c-7.59-0.01-9.45-0.01-10.19-1.36
		c-0.8-1.46,0.22-3.74,1.06-4.91c1.04-1.46,2-1.46,3.39-2.87c0.89-0.91,1.9-2.34,2.49-4.66c1.93,0.24,5.09,0.93,8.21,3.1
		C79.89,43.69,81.29,45.96,81.69,46.64z"/>
	<path class="st1" d="M68.64,65.91c0.04,0.22,0.85,4.35,0.12,4.59c-0.44,0.15-1.45-1.12-1.71-2.49c-0.14-0.72,0-1.23,0.06-1.79
		c0.32-3.03-0.46-5.02-0.22-5.07C67.16,61.09,68.13,63.32,68.64,65.91z"/>
	<path class="st1" d="M73.38,65.28c-0.03,1.42-0.28,4.02-0.95,4.09c-0.36,0.04-0.76-0.67-0.93-1.17c-0.37-1.09,0.09-2.03,0.31-2.92
		c0.79-3.17,0.51-5.01,0.78-5.01C72.94,60.26,73.44,62.78,73.38,65.28z"/>
	<path class="st1" d="M78.05,65.61c0.1,1.39,0.31,2.49-0.34,3.67c-0.11,0.2-0.67,1.21-1.31,1.13c-0.66-0.08-0.97-1.26-0.99-1.33
		c-0.31-1.25,0.37-2.19,1.1-3.75c1.33-2.87,1.4-4.84,1.65-4.8C78.4,60.58,77.82,62.42,78.05,65.61z"/>
	<circle class="st1" cx="70.41" cy="37.54" r="3.23"/>
	<path class="st1" d="M62.92,29.7c0.67,0.01,3.21,0.11,5.14,2.05c0.74,0.75,1.17,1.55,1.42,2.15"/>
</g>
</svg>
