<?xml version="1.0" encoding="utf-8"?>
<!-- Generator: Adobe Illustrator 24.1.1, SVG Export Plug-In . SVG Version: 6.00 Build 0)  -->
<svg version="1.1" id="Слой_1" xmlns="http://www.w3.org/2000/svg" xmlns:xlink="http://www.w3.org/1999/xlink" x="0px" y="0px"
	 viewBox="0 0 104.88 141.73" style="enable-background:new 0 0 104.88 141.73;" xml:space="preserve">
<style type="text/css">
	.st0{fill:#C2D796;stroke:#455922;stroke-width:4;stroke-miterlimit:10;}
	.st1{fill:#FFFFFF;stroke:#455922;stroke-width:3;stroke-miterlimit:10;}
</style>
<path class="st0" d="M98.67,54.8c0.49,16.5-11.85,35.97-36.54,74.9c-1.45,2.29-4.62,7.14-8.87,7.18c-4.16,0.03-7.33-4.56-8.75-6.67
	C18.44,91.4,5.4,72,6.72,53.43c0.56-7.95,1.6-22.52,12.99-34.34C32.81,5.49,50.28,5.21,53.26,5.21c3.1,0,21.53,0.3,34.32,14.66
	C97.98,31.55,98.4,45.51,98.67,54.8z"/>
<ellipse class="st1" cx="51.34" cy="84.48" rx="23.95" ry="4.87"/>
<g>
	<g>
		<path class="st1" d="M70.62,55.58v8.89c0,1.96-0.24,3.85-0.67,5.62c-0.37,1.54-0.9,3-1.56,4.33c-2.51,5.12-6.9,8.51-11.91,8.51
			H45.71c-7.8,0-14.14-8.26-14.14-18.45v-8.89c0-1.76,1.09-3.18,2.44-3.18h34.15C69.53,52.4,70.62,53.82,70.62,55.58z"/>
		<path class="st1" d="M74.26,71.5c-1.68,1.64-3.58,2.36-4.8,2.69c0.39-3.24,0.77-6.48,1.16-9.72v-5.5
			c0.81-0.14,4.39-0.69,6.25,1.34C79.34,63.01,77.24,68.6,74.26,71.5z"/>
	</g>
	<path class="st1" d="M48.26,44.13c1.01-4.32-4.03-6.46-4.82-11.51c-0.45-2.92,0.46-7.21,6.59-13.18
		c-0.62,6.73,0.99,10.91,2.64,13.51c2.68,4.24,6.07,5.26,8.9,10.37c1.9,3.43,2.47,6.78,2.66,9.08c-7.64,0-15.27,0-22.91,0
		c0.57-0.37,1.37-0.93,2.25-1.71C44.19,50.13,47.56,47.13,48.26,44.13z"/>
</g>
</svg>
