<?xml version="1.0" encoding="utf-8"?>
<!-- Generator: Adobe Illustrator 24.1.1, SVG Export Plug-In . SVG Version: 6.00 Build 0)  -->
<svg version="1.1" id="Слой_1" xmlns="http://www.w3.org/2000/svg" xmlns:xlink="http://www.w3.org/1999/xlink" x="0px" y="0px"
	 viewBox="0 0 104.88 141.73" style="enable-background:new 0 0 104.88 141.73;" xml:space="preserve">
<style type="text/css">
	.st0{fill:#F2A973;stroke:#633C0B;stroke-width:4;stroke-miterlimit:10;}
	.st1{fill:#FFFFFF;stroke:#633C0B;stroke-width:3;stroke-miterlimit:10;}
	.st2{fill:none;stroke:#633C0B;stroke-width:2;stroke-miterlimit:10;}
	.st3{fill:none;stroke:#633C0B;stroke-width:3;stroke-miterlimit:10;}
</style>
<path class="st0" d="M98.44,54.8c0.49,16.5-11.85,35.97-36.54,74.9c-1.45,2.29-4.62,7.14-8.87,7.18c-4.16,0.03-7.33-4.56-8.75-6.67
	C18.2,91.4,5.17,72,6.49,53.43c0.56-7.95,1.6-22.52,12.99-34.34C32.57,5.49,50.05,5.21,53.03,5.21c3.1,0,21.53,0.3,34.32,14.66
	C97.75,31.55,98.17,45.51,98.44,54.8z"/>
<g>
	<g>
		<path class="st1" d="M64.55,54.79c10.13,0.76,17.17,2.46,17.17,4.42c0,2.68-13.12,4.85-29.3,4.85s-29.3-2.17-29.3-4.85
			c0-2.68,13.12-4.85,29.3-4.85c2.77,0,5.45,0.06,7.99,0.18"/>
		<path class="st1" d="M52.42,89.6c-8.19,0-15.64-3.45-20.97-8.95c-1.35-1.39-7.86-8.05-8.19-17.64c-0.04-1.27,0.03-2.32,0.1-3.05
			c2.09,0.74,5.08,1.7,8.77,2.5c7.46,1.63,13.27,1.63,20.29,1.6c5.38-0.02,10.13-0.06,16.46-1.1c5.29-0.86,9.65-2.09,12.84-3.13
			c0.02,0.69,0.01,1.58-0.09,2.62C80.47,74.59,68.4,89.6,52.42,89.6z"/>
	</g>
	<g>
		<g>
			<path class="st2" d="M49,31.04c2.49,4,2.23,8.02,1.89,13.07c-0.29,4.4-0.84,12.58-4.26,13.47c-3.55,0.93-8.24-6.51-10.56-10.19
				c-2.71-4.3-4.75-7.53-4.48-12.03c0.21-3.54,1.96-9.73,6.55-10.86C42.79,23.34,47.22,28.19,49,31.04z"/>
			<path class="st2" d="M45.16,31.99c4.65,9.74,4.43,24.79,1.37,25.62c-3.09,0.84-10.59-12.36-11.07-23.21
				c-0.15-3.33,0.24-9.3,2.69-9.91C41.15,23.75,44.97,31.61,45.16,31.99z"/>
			<path class="st2" d="M42.12,32.75c3.33,10.07,5.45,24.54,4.32,24.88c-1.13,0.35-6.13-13.47-7.92-23.99
				c-0.55-3.23-1.27-8.93-0.36-9.15C39.27,24.21,41.99,32.35,42.12,32.75z"/>
		</g>
		<line class="st3" x1="46.44" y1="57.63" x2="47.87" y2="63.61"/>
	</g>
	<g>
		<g>
			<path class="st1" d="M69.78,51.3L56.1,49.34c-1.6-0.23-2.72-1.72-2.49-3.32l0.49-3.44l19.5,2.78l-0.49,3.44
				C72.88,50.41,71.39,51.53,69.78,51.3z"/>
			<g>
				<path class="st1" d="M73.65,45l-19.5-2.78l1.5-10.52c0.2-1.39,1.49-2.36,2.88-2.16l14.46,2.06c1.39,0.2,2.36,1.49,2.16,2.88
					L73.65,45z"/>
				<line class="st3" x1="60.03" y1="30.54" x2="58.44" y2="41.67"/>
				<line class="st3" x1="64.68" y1="31.2" x2="63.09" y2="42.34"/>
				<line class="st3" x1="69.59" y1="31.9" x2="68" y2="43.04"/>
			</g>
		</g>
		
			<rect x="60.19" y="50.26" transform="matrix(0.99 0.1413 -0.1413 0.99 8.6079 -8.1986)" class="st1" width="3.73" height="12.55"/>
	</g>
</g>
</svg>
