<?xml version="1.0" encoding="utf-8"?>
<!-- Generator: Adobe Illustrator 24.1.1, SVG Export Plug-In . SVG Version: 6.00 Build 0)  -->
<svg version="1.1" id="Слой_1" xmlns="http://www.w3.org/2000/svg" xmlns:xlink="http://www.w3.org/1999/xlink" x="0px" y="0px"
	 viewBox="0 0 104.88 141.73" style="enable-background:new 0 0 104.88 141.73;" xml:space="preserve">
<style type="text/css">
	.st0{fill:#FAF197;stroke:#7C7A25;stroke-width:4;stroke-miterlimit:10;}
	.st1{fill:#FFFFFF;stroke:#7C7A25;stroke-width:0.75;stroke-miterlimit:10;}
	.st2{fill:#FFFFFF;stroke:#7C7A25;stroke-width:4;stroke-miterlimit:10;}
	.st3{fill:#7C7A25;stroke:#7C7A25;stroke-miterlimit:10;}
	.st4{fill:#FFFFFF;stroke:#000000;stroke-width:0.75;stroke-miterlimit:10;}
</style>
<path class="st0" d="M96.38,54.8c0.49,16.5-11.85,35.97-36.54,74.9c-1.45,2.29-4.62,7.14-8.87,7.18c-4.16,0.03-7.33-4.56-8.75-6.67
	C16.14,91.4,3.1,72,4.42,53.43c0.56-7.95,1.6-22.52,12.99-34.34C30.51,5.49,47.98,5.21,50.97,5.21c3.1,0,21.53,0.3,34.32,14.66
	C95.69,31.55,96.1,45.51,96.38,54.8z"/>
<path class="st1" d="M42.33,60.26c4-0.47,7.04,1.28,7.83,1.76c1.45,0.89,1,1.04,1.96,1.47c2.72,1.21,4.75-0.73,6.95,0.59
	c0.21,0.13,1.31,0.82,1.66,2.05c0.42,1.47-0.48,2.87-0.2,3.03c0.29,0.16,1.33-1.19,1.47-1.37c2.92-3.79,4.78-6.21,7.14-6.75
	c1.33-0.31,3.1-0.08,3.91,0.98c1.25,1.64-0.34,4.53-0.59,4.99c-0.84,1.53-1.52,1.62-3.91,3.82c-3.42,3.14-3.58,4.4-5.67,5.18
	c-1.58,0.59-2.85,0.38-4.6,0.2c-3.74-0.4-12.19-1.32-18.68-0.1c-0.4,0.08-2.71,0.52-5.58,0c-1.6-0.29-2.79-0.52-3.42-1.47
	c-0.89-1.32,0.39-2.45,0.29-5.67c-0.08-2.68-1-3.69-0.29-4.5c0.8-0.92,2.04,0.29,4.3-0.39c2.42-0.73,2.73-2.64,5.87-3.52
	C41.43,60.37,41.93,60.31,42.33,60.26z"/>
<path class="st1" d="M59.35,34.14c2.54,0.89,6.99,2.45,10.57,6.55c3.94,4.52,5.41,10.5,4.01,12.42c-0.57,0.78-1.37,1.17-1.37,1.17
	c-1.28,0.62-2.62,0.27-2.93,0.2c-3.73-0.85-27.64,0.59-37.47,0.2c-0.42-0.02-1.37-0.07-1.76-0.68c-0.5-0.8,0.25-2.11,0.49-2.54
	c2.5-4.47,1.44-6.72,4.4-10.76c3.81-5.2,10.55-8.27,16.83-8.12C55.1,32.65,57.35,33.44,59.35,34.14z"/>
<path class="st2" d="M14.94,106.24"/>
<path class="st1" d="M55.73,29.06c0.08,1.75-1.8,3.33-3.62,3.03c-1.9-0.31-3.07-2.55-2.45-4.11c0.42-1.05,1.59-1.6,2.54-1.66
	C53.81,26.21,55.65,27.38,55.73,29.06z"/>
<g>
	<path class="st3" d="M29.95,77.71c-0.77-0.37-1.09-0.96-1.08-1.82c0.02-3.98,0.01-7.96,0.01-11.94c0-1.19,0.59-1.79,1.77-1.79
		c1.76,0,3.51-0.01,5.27,0c0.31,0,0.54-0.08,0.77-0.32c3.9-4.13,10.19-4.6,14.67-1.11c0.24,0.19,0.51,0.36,0.72,0.59
		c0.62,0.68,1.39,0.87,2.28,0.85c1.41-0.04,2.82-0.01,4.24-0.01c1.86,0.01,3.23,0.87,4.12,2.47c0.24,0.43,0.36,0.36,0.64,0.08
		c1.56-1.53,3.01-3.18,4.68-4.59c1.44-1.21,3.13-1.42,4.84-0.66c1.77,0.79,2.71,2.21,2.79,4.17c0.06,1.46-0.54,2.64-1.54,3.64
		c-2.97,2.98-5.94,5.94-8.91,8.92c-0.74,0.74-1.61,1.22-2.61,1.51C51.73,77.71,40.84,77.71,29.95,77.71z M50.2,74.57
		c3.6,0,7.2-0.02,10.8,0.01c0.89,0.01,1.56-0.27,2.19-0.91c2.64-2.69,5.32-5.34,7.99-8.01c0.3-0.3,0.62-0.6,0.9-0.92
		c0.4-0.45,0.49-0.98,0.27-1.54c-0.22-0.54-0.65-0.84-1.22-0.91c-0.56-0.06-0.98,0.21-1.36,0.6c-2.61,2.62-5.25,5.23-7.85,7.86
		c-0.56,0.57-1.16,0.82-1.97,0.81c-2.39-0.04-4.79-0.01-7.18-0.02c-0.72,0-1.33,0.18-1.83,0.76c-0.62,0.7-1.55,0.74-2.22,0.18
		c-0.7-0.59-0.8-1.49-0.21-2.26c0.9-1.18,2.1-1.82,3.59-1.84c2-0.02,4-0.01,5.99,0c0.31,0,0.62-0.02,0.92-0.11
		c0.75-0.22,1.19-0.97,1.01-1.74c-0.18-0.76-0.77-1.17-1.72-1.18c-1.57-0.01-3.13,0-4.7-0.01c-0.33,0-0.65,0-0.98-0.06
		c-1.12-0.21-1.96-0.88-2.78-1.61c-3.21-2.85-7.85-2.68-10.8,0.39c-0.39,0.4-0.59,0.82-0.59,1.41c0.03,2.82,0.03,5.65,0,8.47
		c0,0.49,0.13,0.65,0.64,0.64C42.79,74.56,46.5,74.57,50.2,74.57z M32.06,69.89c0,1.38,0.01,2.75-0.01,4.13
		c-0.01,0.43,0.14,0.57,0.56,0.55c0.74-0.03,1.48-0.02,2.22,0c0.32,0.01,0.47-0.09,0.47-0.44c-0.01-2.79-0.01-5.57,0-8.36
		c0-0.34-0.13-0.45-0.46-0.45c-0.76,0.02-1.51,0.03-2.27,0c-0.42-0.02-0.53,0.15-0.52,0.54C32.07,67.21,32.06,68.55,32.06,69.89z"/>
	<path class="st3" d="M25.82,53.93c0.37-0.8,0.99-1.11,1.87-1.08c1.16,0.04,1.19,0.01,1.33-1.1c0.52-4.16,2.01-7.92,4.52-11.28
		c2.06-2.76,4.6-4.97,7.61-6.64c2.02-1.11,4.15-1.94,6.41-2.39c0.36-0.07,0.47-0.2,0.35-0.59c-0.81-2.76,0.74-5.39,3.54-6.04
		c2.7-0.63,5.56,1.58,5.62,4.35c0.01,0.59,0.02,1.18-0.22,1.73c-0.19,0.44,0.09,0.5,0.39,0.56c1.49,0.3,2.93,0.77,4.32,1.38
		c5.18,2.31,9.05,6.01,11.63,11.06c1.12,2.2,1.83,4.53,2.23,6.95c0.08,0.49,0.11,0.99,0.15,1.49c0.03,0.36,0.17,0.57,0.59,0.53
		c0.36-0.03,0.72-0.01,1.08,0c0.9,0.03,1.53,0.7,1.53,1.61c-0.01,0.87-0.65,1.53-1.53,1.56c-0.15,0.01-0.31,0-0.47,0
		c-16.37,0-32.73,0-49.1,0.01c-0.88,0-1.5-0.28-1.87-1.08C25.82,54.62,25.82,54.27,25.82,53.93z M52.29,52.86
		c6.44,0,12.88,0,19.33,0c0.16,0,0.31,0,0.47,0c0.25,0,0.34-0.11,0.3-0.36c-0.07-0.53-0.11-1.06-0.21-1.58
		c-1.07-5.5-3.82-9.95-8.42-13.19c-4-2.82-8.49-3.95-13.34-3.49c-3.51,0.34-6.73,1.57-9.59,3.65c-4.89,3.57-7.83,8.32-8.59,14.37
		c-0.08,0.6-0.08,0.6,0.57,0.6C39.3,52.86,45.79,52.86,52.29,52.86z M53.87,29.41c-0.01-0.8-0.73-1.49-1.51-1.47
		c-0.78,0.02-1.45,0.69-1.45,1.47c-0.01,0.79,0.69,1.49,1.49,1.49C53.18,30.91,53.88,30.2,53.87,29.41z"/>
</g>
<path class="st4" d="M102.98,67.99"/>
</svg>
