<?xml version="1.0" encoding="utf-8"?>
<!-- Generator: Adobe Illustrator 24.1.1, SVG Export Plug-In . SVG Version: 6.00 Build 0)  -->
<svg version="1.1" id="Слой_1" xmlns="http://www.w3.org/2000/svg" xmlns:xlink="http://www.w3.org/1999/xlink" x="0px" y="0px"
	 viewBox="0 0 104.88 141.73" style="enable-background:new 0 0 104.88 141.73;" xml:space="preserve">
<style type="text/css">
	.st0{fill:#F3C27D;stroke:#625114;stroke-width:4;stroke-miterlimit:10;}
	.st1{fill:#F3C27D;stroke:#625114;stroke-width:3;stroke-miterlimit:10;}
	.st2{fill:#FFFFFF;stroke:#625114;stroke-width:3;stroke-miterlimit:10;}
</style>
<path class="st0" d="M98.67,54.8c0.49,16.5-11.85,35.97-36.54,74.9c-1.45,2.29-4.62,7.14-8.87,7.18c-4.16,0.03-7.33-4.56-8.75-6.67
	C18.44,91.4,5.4,72,6.72,53.43c0.56-7.95,1.6-22.52,12.99-34.34C32.81,5.49,50.28,5.21,53.26,5.21c3.1,0,21.53,0.3,34.32,14.66
	C97.98,31.55,98.4,45.51,98.67,54.8z"/>
<g>
	<g>
		<path class="st1" d="M29.73,16.73c-0.18,0.7-0.41,1.7-0.64,2.91c-0.61,3.26-0.37,3.78-0.18,4.04c0.44,0.62,1.4,0.8,3.34,1.16
			c1.75,0.32,2.63,0.49,3.19,0.13c0.37-0.24,0.72-0.66,1.37-3.86c0.24-1.19,0.41-2.2,0.52-2.93"/>
		<path class="st2" d="M33.59,17.36c-1.72,9.6-3.43,19.2-5.15,28.81"/>
	</g>
	<path class="st2" d="M45.84,30.71c-1.34,0.85-3.59,1.04-5.27-0.27c-1.9-1.49-2-4.08-1.32-5.62c0.31-0.7,0.76-1.13,1.65-1.98
		c0.98-0.93,1.84-1.76,3.18-2.15c0.52-0.15,2.65-0.77,4.12,0.47c1.63,1.37,1.16,3.93,1.08,4.35c-0.26,1.43-1.06,2.45-2.02,3.68
		C46.63,30,46.32,30.4,45.84,30.71z"/>
	<path class="st2" d="M40.57,30.44c-1.72,2.09-3.45,4.17-5.17,6.26C37.12,34.61,38.85,32.52,40.57,30.44z"/>
	<g>
		<path class="st2" d="M21.2,63.19c-0.55-0.39,0.26-2.95,0.64-4.12c2.71-8.42,8.52-25.39,9.52-28.3c3.51,0.97,7.02,1.95,10.53,2.92
			c-5.12,8.46-12.95,21.11-17.45,26.68C21.86,63.54,21.3,63.26,21.2,63.19z"/>
		<path class="st2" d="M21.33,58.94c1.11-6.29,5.42-20.4,8.47-30.06c2.45,1.27,4.9,2.53,7.34,3.8
			c-2.33,4.65-10.28,20.56-13.74,27.08c-0.5,0.94-1.65,3.09-2.16,2.98C20.68,62.63,21.15,59.95,21.33,58.94z"/>
	</g>
</g>
<g>
	<circle class="st2" cx="65.21" cy="58.8" r="24.64"/>
	<circle class="st2" cx="65.21" cy="58.35" r="14.62"/>
</g>
</svg>
