<?xml version="1.0" encoding="utf-8"?>
<!-- Generator: Adobe Illustrator 24.1.1, SVG Export Plug-In . SVG Version: 6.00 Build 0)  -->
<svg version="1.1" id="Слой_1" xmlns="http://www.w3.org/2000/svg" xmlns:xlink="http://www.w3.org/1999/xlink" x="0px" y="0px"
	 viewBox="0 0 104.88 141.73" style="enable-background:new 0 0 104.88 141.73;" xml:space="preserve">
<style type="text/css">
	.st0{fill:#885F9B;stroke:#541530;stroke-width:4;stroke-miterlimit:10;}
	.st1{fill:#FFFFFF;stroke:#541530;stroke-width:3;stroke-miterlimit:10;}
</style>
<path class="st0" d="M98.44,54.8c0.49,16.5-11.85,35.97-36.54,74.9c-1.45,2.29-4.62,7.14-8.87,7.18c-4.16,0.03-7.33-4.56-8.75-6.67
	C18.2,91.4,5.17,72,6.49,53.43c0.56-7.95,1.6-22.52,12.99-34.34C32.57,5.49,50.05,5.21,53.03,5.21c3.1,0,21.53,0.3,34.32,14.66
	C97.75,31.55,98.17,45.51,98.44,54.8z"/>
<g>
	<path class="st1" d="M37.97,78.51c-2.32,0.29-4.97,0.48-7.88,0.48c-2.79-0.01-5.33-0.2-7.58-0.48
		c-0.98-12.74-1.96-25.49-2.93-38.23c2.66-0.68,6.18-1.31,10.32-1.35c4.58-0.05,8.43,0.63,11.26,1.35
		C40.1,53.02,39.04,65.76,37.97,78.51z"/>
	<path class="st0" d="M30.67,38.84c0.22-2.48,0.43-4.96,0.65-7.43c2.39-0.96,4.78-1.91,7.17-2.87"/>
	<path class="st1" d="M20.43,47.32c6.27,3.45,12.54,6.89,18.82,10.34"/>
	<path class="st1" d="M21.22,61.68c5.55,2.7,11.1,5.41,16.65,8.11"/>
</g>
<g>
	<g>
		<path class="st1" d="M66.86,79.47c0,0-17.72-0.41-20.62-3.48c-0.31-0.33-0.43-0.71-0.43-0.71c-0.05-0.16-0.08-0.34-0.08-0.51
			v-1.04c0-0.96,0.78-1.73,1.73-1.73c5.42-0.84,11.81-1.45,18.97-1.45c7.11,0,13.45,0.62,18.84,1.45c0.12,0,0.73,0.01,1.23,0.51
			c0.31,0.31,0.51,0.75,0.51,1.23v1.04c-0.05,0.33-0.18,0.8-0.51,1.23c0,0-0.49,0.65-1.42,0.97C77.25,79.71,66.86,79.47,66.86,79.47
			z"/>
		<path class="st1" d="M46.11,66.7c-0.7,0.29-0.86,0.53-0.86,0.7c-0.01,0.58,1.72,0.93,1.66,1.45c-0.03,0.28-0.57,0.4-0.54,0.54
			c0.06,0.23,1.54-0.22,1.99,0.38c0.19,0.25,0.06,0.53,0.05,0.91c-0.02,1.15,1.08,2.45,2.09,2.79c1.86,0.63,3.95-1.76,4.62-1.13
			c0.34,0.33-0.13,1.06,0.38,1.72c0.19,0.25,0.46,0.4,1.18,0.59c1.58,0.41,2.78,0.72,3.65,0.11c0.88-0.61,0.71-1.65,1.23-1.72
			c0.84-0.11,1.71,2.55,2.15,2.42c0.36-0.11-0.22-1.95,0.43-2.36c0.63-0.41,1.66,1.04,3.76,1.72c2.35,0.76,5.03,0.23,5.26-0.64
			c0.15-0.55-0.7-1.1-0.54-1.34c0.35-0.5,3.98,1.8,4.67,1.02c0.33-0.37-0.31-1.1,0.05-1.56c0.58-0.71,2.54,0.66,3.6-0.16
			c0.73-0.57,0.2-1.54,0.86-2.04c1.15-0.87,3.5,1.46,4.67,0.59c0.58-0.43,0.73-1.54,0.38-1.93c-0.26-0.28-0.76-0.18-0.81-0.38
			c-0.05-0.24,0.7-0.44,0.7-0.75c0-0.19-0.27-0.46-1.61-0.81"/>
		<path class="st1" d="M66.19,70.24c0,0-16.7-0.39-19.43-3.28c-0.29-0.31-0.41-0.67-0.41-0.67c-0.05-0.15-0.07-0.32-0.07-0.48v-0.98
			c0-0.9,0.73-1.63,1.63-1.63c5.11-0.79,11.13-1.37,17.88-1.36c6.7,0,12.68,0.58,17.76,1.36c0.11,0,0.69,0.01,1.16,0.48
			c0.3,0.3,0.48,0.7,0.48,1.16v0.98c-0.05,0.32-0.17,0.75-0.48,1.16c0,0-0.46,0.61-1.34,0.92C75.99,70.47,66.19,70.24,66.19,70.24z"
			/>
		<path class="st1" d="M85.19,58.87c-0.1,0.83-0.37,2.08-1.22,3.23c-2.55,3.45-7.46,2.1-18.83,2.36
			c-9.64,0.22-13.45,1.36-16.75-1.65c-1.44-1.31-2.18-2.86-2.58-3.95c-0.03-0.23-0.04-0.52,0-0.85c0.58-4.87,11.22-8.45,19.68-8.45
			s19.11,3.58,19.68,8.45C85.23,58.35,85.22,58.65,85.19,58.87z"/>
	</g>
	<path class="st1" d="M53.2,54.66c0.43,0.17,0.86,0.33,1.29,0.5"/>
	<path class="st1" d="M70.38,53.37c-0.38,0.1-0.76,0.19-1.15,0.29"/>
	<path class="st1" d="M63.29,53.58c-0.52-0.24-1.05-0.48-1.57-0.72"/>
	<path class="st1" d="M59.64,57.02c-0.24-0.17-0.48-0.33-0.72-0.5"/>
	<path class="st1" d="M72.74,58.16c-0.26,0.1-0.52,0.19-0.79,0.29"/>
	<path class="st1" d="M67.15,59.38c-0.48,0.19-0.95,0.38-1.43,0.57"/>
	<path class="st1" d="M54.7,60.02c0.14,0.17,0.29,0.33,0.43,0.5"/>
	<path class="st1" d="M78.89,58.02c-0.17,0.14-0.33,0.29-0.5,0.43"/>
	<path class="st1" d="M66.44,55.73c-0.02,0.24-0.05,0.48-0.07,0.72"/>
	<path class="st1" d="M60.43,59.67c-0.02,0.29-0.05,0.57-0.07,0.86"/>
	<path class="st1" d="M74.89,53.33c-0.07,0.29-0.14,0.57-0.21,0.86"/>
</g>
</svg>
